solid Default
  facet normal -1.000000e+00 -0.000000e+00 -0.000000e+00
    outer loop
      vertex -3.750000e+00 -9.600000e+00 0.000000e+00
      vertex -3.750000e+00 -9.600000e+00 9.000000e+00
      vertex -3.750000e+00 9.600000e+00 0.000000e+00
    endloop
  endfacet
  facet normal -1.000000e+00 0.000000e+00 0.000000e+00
    outer loop
      vertex -3.750000e+00 9.600000e+00 0.000000e+00
      vertex -3.750000e+00 -9.600000e+00 9.000000e+00
      vertex -3.750000e+00 9.600000e+00 9.000000e+00
    endloop
  endfacet
  facet normal 0.000000e+00 -1.000000e+00 0.000000e+00
    outer loop
      vertex -3.750000e+00 -9.600000e+00 9.000000e+00
      vertex -3.750000e+00 -9.600000e+00 0.000000e+00
      vertex 3.750000e+00 -9.600000e+00 0.000000e+00
    endloop
  endfacet
  facet normal 0.000000e+00 -1.000000e+00 0.000000e+00
    outer loop
      vertex 3.750000e+00 -9.600000e+00 9.000000e+00
      vertex -3.750000e+00 -9.600000e+00 9.000000e+00
      vertex 3.750000e+00 -9.600000e+00 0.000000e+00
    endloop
  endfacet
  facet normal 0.000000e+00 0.000000e+00 -1.000000e+00
    outer loop
      vertex -2.250000e+00 7.600000e+00 0.000000e+00
      vertex -3.750000e+00 9.600000e+00 0.000000e+00
      vertex -2.250000e+00 9.600000e+00 0.000000e+00
    endloop
  endfacet
  facet normal 0.000000e+00 0.000000e+00 -1.000000e+00
    outer loop
      vertex 3.750000e+00 6.600000e+00 0.000000e+00
      vertex -2.250000e+00 9.600000e+00 0.000000e+00
      vertex 3.750000e+00 9.600000e+00 0.000000e+00
    endloop
  endfacet
  facet normal -0.000000e+00 -0.000000e+00 -1.000000e+00
    outer loop
      vertex 7.500000e-01 7.600000e+00 0.000000e+00
      vertex -2.250000e+00 9.600000e+00 0.000000e+00
      vertex 3.750000e+00 6.600000e+00 0.000000e+00
    endloop
  endfacet
  facet normal 0.000000e+00 0.000000e+00 -1.000000e+00
    outer loop
      vertex -2.250000e+00 -7.600000e+00 0.000000e+00
      vertex -3.750000e+00 9.600000e+00 0.000000e+00
      vertex -2.250000e+00 7.600000e+00 0.000000e+00
    endloop
  endfacet
  facet normal 0.000000e+00 0.000000e+00 -1.000000e+00
    outer loop
      vertex -3.750000e+00 -9.600000e+00 0.000000e+00
      vertex -3.750000e+00 9.600000e+00 0.000000e+00
      vertex -2.250000e+00 -7.600000e+00 0.000000e+00
    endloop
  endfacet
  facet normal 0.000000e+00 0.000000e+00 -1.000000e+00
    outer loop
      vertex -3.750000e+00 -9.600000e+00 0.000000e+00
      vertex -2.250000e+00 -7.600000e+00 0.000000e+00
      vertex 3.750000e+00 -9.600000e+00 0.000000e+00
    endloop
  endfacet
  facet normal 0.000000e+00 0.000000e+00 -1.000000e+00
    outer loop
      vertex 3.750000e+00 -6.600000e+00 0.000000e+00
      vertex 3.750000e+00 -9.600000e+00 0.000000e+00
      vertex 7.500000e-01 -7.600000e+00 0.000000e+00
    endloop
  endfacet
  facet normal 0.000000e+00 0.000000e+00 -1.000000e+00
    outer loop
      vertex -2.250000e+00 -7.600000e+00 0.000000e+00
      vertex 7.500000e-01 -7.600000e+00 0.000000e+00
      vertex 3.750000e+00 -9.600000e+00 0.000000e+00
    endloop
  endfacet
  facet normal -0.000000e+00 -0.000000e+00 -1.000000e+00
    outer loop
      vertex -2.250000e+00 7.600000e+00 0.000000e+00
      vertex -2.250000e+00 9.600000e+00 0.000000e+00
      vertex 7.500000e-01 7.600000e+00 0.000000e+00
    endloop
  endfacet
  facet normal 0.000000e+00 1.000000e+00 0.000000e+00
    outer loop
      vertex -3.750000e+00 9.600000e+00 0.000000e+00
      vertex -3.750000e+00 9.600000e+00 9.000000e+00
      vertex -2.250000e+00 9.600000e+00 0.000000e+00
    endloop
  endfacet
  facet normal 0.000000e+00 1.000000e+00 0.000000e+00
    outer loop
      vertex -2.250000e+00 9.600000e+00 0.000000e+00
      vertex -3.750000e+00 9.600000e+00 9.000000e+00
      vertex -2.250000e+00 9.600000e+00 9.000000e+00
    endloop
  endfacet
  facet normal 0.000000e+00 0.000000e+00 1.000000e+00
    outer loop
      vertex 7.500000e-01 -7.600000e+00 9.000000e+00
      vertex -3.750000e+00 -9.600000e+00 9.000000e+00
      vertex 3.750000e+00 -9.600000e+00 9.000000e+00
    endloop
  endfacet
  facet normal 0.000000e+00 0.000000e+00 1.000000e+00
    outer loop
      vertex -2.250000e+00 -7.600000e+00 9.000000e+00
      vertex -3.750000e+00 -9.600000e+00 9.000000e+00
      vertex 7.500000e-01 -7.600000e+00 9.000000e+00
    endloop
  endfacet
  facet normal 0.000000e+00 0.000000e+00 1.000000e+00
    outer loop
      vertex -3.750000e+00 9.600000e+00 9.000000e+00
      vertex -3.750000e+00 -9.600000e+00 9.000000e+00
      vertex -2.250000e+00 -7.600000e+00 9.000000e+00
    endloop
  endfacet
  facet normal 0.000000e+00 0.000000e+00 1.000000e+00
    outer loop
      vertex 7.500000e-01 7.600000e+00 9.000000e+00
      vertex -3.750000e+00 9.600000e+00 9.000000e+00
      vertex -2.250000e+00 7.600000e+00 9.000000e+00
    endloop
  endfacet
  facet normal 0.000000e+00 0.000000e+00 1.000000e+00
    outer loop
      vertex 3.750000e+00 6.600000e+00 9.000000e+00
      vertex -3.750000e+00 9.600000e+00 9.000000e+00
      vertex 7.500000e-01 7.600000e+00 9.000000e+00
    endloop
  endfacet
  facet normal 0.000000e+00 0.000000e+00 1.000000e+00
    outer loop
      vertex -2.250000e+00 9.600000e+00 9.000000e+00
      vertex -3.750000e+00 9.600000e+00 9.000000e+00
      vertex 3.750000e+00 6.600000e+00 9.000000e+00
    endloop
  endfacet
  facet normal 0.000000e+00 0.000000e+00 1.000000e+00
    outer loop
      vertex 3.750000e+00 9.600000e+00 9.000000e+00
      vertex -2.250000e+00 9.600000e+00 9.000000e+00
      vertex 3.750000e+00 6.600000e+00 9.000000e+00
    endloop
  endfacet
  facet normal 0.000000e+00 0.000000e+00 1.000000e+00
    outer loop
      vertex 3.750000e+00 -6.600000e+00 9.000000e+00
      vertex 7.500000e-01 -7.600000e+00 9.000000e+00
      vertex 3.750000e+00 -9.600000e+00 9.000000e+00
    endloop
  endfacet
  facet normal 0.000000e+00 0.000000e+00 1.000000e+00
    outer loop
      vertex -2.250000e+00 -7.600000e+00 9.000000e+00
      vertex -2.250000e+00 7.600000e+00 9.000000e+00
      vertex -3.750000e+00 9.600000e+00 9.000000e+00
    endloop
  endfacet
  facet normal 1.000000e+00 0.000000e+00 0.000000e+00
    outer loop
      vertex 3.750000e+00 -9.600000e+00 9.000000e+00
      vertex 3.750000e+00 -9.600000e+00 0.000000e+00
      vertex 3.750000e+00 -6.600000e+00 0.000000e+00
    endloop
  endfacet
  facet normal 1.000000e+00 0.000000e+00 0.000000e+00
    outer loop
      vertex 3.750000e+00 -6.600000e+00 9.000000e+00
      vertex 3.750000e+00 -9.600000e+00 9.000000e+00
      vertex 3.750000e+00 -6.600000e+00 0.000000e+00
    endloop
  endfacet
  facet normal -3.162281e-01 9.486833e-01 0.000000e+00
    outer loop
      vertex 3.750000e+00 -6.600000e+00 9.000000e+00
      vertex 3.750000e+00 -6.600000e+00 0.000000e+00
      vertex 7.500000e-01 -7.600000e+00 9.000000e+00
    endloop
  endfacet
  facet normal -3.162281e-01 9.486833e-01 0.000000e+00
    outer loop
      vertex 7.500000e-01 -7.600000e+00 9.000000e+00
      vertex 3.750000e+00 -6.600000e+00 0.000000e+00
      vertex 7.500000e-01 -7.600000e+00 0.000000e+00
    endloop
  endfacet
  facet normal 0.000000e+00 1.000000e+00 0.000000e+00
    outer loop
      vertex -2.250000e+00 -7.600000e+00 0.000000e+00
      vertex -2.250000e+00 -7.600000e+00 9.000000e+00
      vertex 7.500000e-01 -7.600000e+00 0.000000e+00
    endloop
  endfacet
  facet normal 0.000000e+00 1.000000e+00 0.000000e+00
    outer loop
      vertex 7.500000e-01 -7.600000e+00 0.000000e+00
      vertex -2.250000e+00 -7.600000e+00 9.000000e+00
      vertex 7.500000e-01 -7.600000e+00 9.000000e+00
    endloop
  endfacet
  facet normal 1.000000e+00 0.000000e+00 0.000000e+00
    outer loop
      vertex -2.250000e+00 -7.600000e+00 9.000000e+00
      vertex -2.250000e+00 -7.600000e+00 0.000000e+00
      vertex -2.250000e+00 7.600000e+00 0.000000e+00
    endloop
  endfacet
  facet normal 1.000000e+00 0.000000e+00 0.000000e+00
    outer loop
      vertex -2.250000e+00 7.600000e+00 9.000000e+00
      vertex -2.250000e+00 -7.600000e+00 9.000000e+00
      vertex -2.250000e+00 7.600000e+00 0.000000e+00
    endloop
  endfacet
  facet normal 0.000000e+00 -1.000000e+00 0.000000e+00
    outer loop
      vertex -2.250000e+00 7.600000e+00 9.000000e+00
      vertex -2.250000e+00 7.600000e+00 0.000000e+00
      vertex 7.500000e-01 7.600000e+00 0.000000e+00
    endloop
  endfacet
  facet normal 0.000000e+00 -1.000000e+00 0.000000e+00
    outer loop
      vertex 7.500000e-01 7.600000e+00 9.000000e+00
      vertex -2.250000e+00 7.600000e+00 9.000000e+00
      vertex 7.500000e-01 7.600000e+00 0.000000e+00
    endloop
  endfacet
  facet normal -3.162281e-01 -9.486833e-01 0.000000e+00
    outer loop
      vertex 7.500000e-01 7.600000e+00 9.000000e+00
      vertex 7.500000e-01 7.600000e+00 0.000000e+00
      vertex 3.750000e+00 6.600000e+00 0.000000e+00
    endloop
  endfacet
  facet normal -3.162281e-01 -9.486833e-01 0.000000e+00
    outer loop
      vertex 3.750000e+00 6.600000e+00 9.000000e+00
      vertex 7.500000e-01 7.600000e+00 9.000000e+00
      vertex 3.750000e+00 6.600000e+00 0.000000e+00
    endloop
  endfacet
  facet normal 1.000000e+00 0.000000e+00 0.000000e+00
    outer loop
      vertex 3.750000e+00 6.600000e+00 9.000000e+00
      vertex 3.750000e+00 6.600000e+00 0.000000e+00
      vertex 3.750000e+00 9.600000e+00 0.000000e+00
    endloop
  endfacet
  facet normal 1.000000e+00 0.000000e+00 0.000000e+00
    outer loop
      vertex 3.750000e+00 9.600000e+00 9.000000e+00
      vertex 3.750000e+00 6.600000e+00 9.000000e+00
      vertex 3.750000e+00 9.600000e+00 0.000000e+00
    endloop
  endfacet
  facet normal 0.000000e+00 1.000000e+00 0.000000e+00
    outer loop
      vertex -2.250000e+00 9.600000e+00 0.000000e+00
      vertex -2.250000e+00 9.600000e+00 9.000000e+00
      vertex 3.750000e+00 9.600000e+00 0.000000e+00
    endloop
  endfacet
  facet normal 0.000000e+00 1.000000e+00 0.000000e+00
    outer loop
      vertex 3.750000e+00 9.600000e+00 0.000000e+00
      vertex -2.250000e+00 9.600000e+00 9.000000e+00
      vertex 3.750000e+00 9.600000e+00 9.000000e+00
    endloop
  endfacet
endsolid Default
