<?xml version="1.0" encoding="UTF-8" standalone="no"?>
<!-- Created with Inkscape (http://www.inkscape.org/) -->

<svg
   xmlns:dc="http://purl.org/dc/elements/1.1/"
   xmlns:cc="http://creativecommons.org/ns#"
   xmlns:rdf="http://www.w3.org/1999/02/22-rdf-syntax-ns#"
   xmlns:svg="http://www.w3.org/2000/svg"
   xmlns="http://www.w3.org/2000/svg"
   xmlns:xlink="http://www.w3.org/1999/xlink"
   xmlns:sodipodi="http://sodipodi.sourceforge.net/DTD/sodipodi-0.dtd"
   xmlns:inkscape="http://www.inkscape.org/namespaces/inkscape"
   width="187.62637"
   height="560.3764"
   id="svg2"
   version="1.1"
   inkscape:version="0.48.3.1 r9886"
   sodipodi:docname="manual_cover.svg"
   inkscape:export-filename="/home/jonathan/Desktop/manual_cover.png"
   inkscape:export-xdpi="600.02155"
   inkscape:export-ydpi="600.02155">
  <defs
     id="defs4">
    <linearGradient
       inkscape:collect="always"
       id="linearGradient3850-7">
      <stop
         style="stop-color:#73d216;stop-opacity:1;"
         offset="0"
         id="stop3852-3" />
      <stop
         style="stop-color:#8ae234;stop-opacity:1"
         offset="1"
         id="stop3854-0" />
    </linearGradient>
    <clipPath
       clipPathUnits="userSpaceOnUse"
       id="clipPath7200">
      <rect
         style="fill:#ff0000;fill-opacity:1;stroke:none"
         id="rect7202"
         width="275.15894"
         height="242.40187"
         x="1052.9717"
         y="273.43253" />
    </clipPath>
    <clipPath
       clipPathUnits="userSpaceOnUse"
       id="clipPath7348">
      <rect
         y="12.410913"
         x="1053.1599"
         height="238.26413"
         width="274.78268"
         id="rect7350"
         style="opacity:0.70234112;fill:#cc0000;fill-opacity:1;stroke:none" />
    </clipPath>
    <linearGradient
       inkscape:collect="always"
       xlink:href="#linearGradient3850-7"
       id="linearGradient8446"
       gradientUnits="userSpaceOnUse"
       x1="314.65482"
       y1="136.56906"
       x2="349.88681"
       y2="136.56906" />
    <linearGradient
       y2="136.56906"
       x2="349.88681"
       y1="136.56906"
       x1="314.65482"
       gradientUnits="userSpaceOnUse"
       id="linearGradient4364"
       xlink:href="#linearGradient3850"
       inkscape:collect="always" />
    <linearGradient
       id="linearGradient3850-7-7"
       inkscape:collect="always">
      <stop
         id="stop3852-3-2"
         offset="0"
         style="stop-color:#73d216;stop-opacity:1;" />
      <stop
         id="stop3854-0-8"
         offset="1"
         style="stop-color:#8ae234;stop-opacity:1" />
    </linearGradient>
    <linearGradient
       gradientTransform="matrix(0.46193964,0,0,0.46193964,-64.834222,-31.155494)"
       y2="136.56906"
       x2="349.88681"
       y1="136.56906"
       x1="314.65482"
       gradientUnits="userSpaceOnUse"
       id="linearGradient4303"
       xlink:href="#linearGradient3850"
       inkscape:collect="always" />
    <linearGradient
       y2="136.56906"
       x2="349.88681"
       y1="136.56906"
       x1="314.65482"
       gradientUnits="userSpaceOnUse"
       id="linearGradient4299"
       xlink:href="#linearGradient3850"
       inkscape:collect="always" />
    <linearGradient
       y2="136.56906"
       x2="349.88681"
       y1="136.56906"
       x1="314.65482"
       gradientUnits="userSpaceOnUse"
       id="linearGradient4267"
       xlink:href="#linearGradient3850"
       inkscape:collect="always" />
    <linearGradient
       y2="136.56906"
       x2="349.88681"
       y1="136.56906"
       x1="314.65482"
       gradientUnits="userSpaceOnUse"
       id="linearGradient4265"
       xlink:href="#linearGradient3850"
       inkscape:collect="always" />
    <linearGradient
       y2="136.56906"
       x2="349.88681"
       y1="136.56906"
       x1="314.65482"
       gradientUnits="userSpaceOnUse"
       id="linearGradient4194"
       xlink:href="#linearGradient3850"
       inkscape:collect="always" />
    <linearGradient
       y2="136.56906"
       x2="349.88681"
       y1="136.56906"
       x1="314.65482"
       gradientUnits="userSpaceOnUse"
       id="linearGradient4192"
       xlink:href="#linearGradient3850"
       inkscape:collect="always" />
    <linearGradient
       id="linearGradient3850"
       inkscape:collect="always">
      <stop
         id="stop3852"
         offset="0"
         style="stop-color:#73d216;stop-opacity:1;" />
      <stop
         id="stop3854"
         offset="1"
         style="stop-color:#8ae234;stop-opacity:1" />
    </linearGradient>
    <linearGradient
       inkscape:collect="always"
       xlink:href="#linearGradient3850-7-7"
       id="linearGradient8708"
       gradientUnits="userSpaceOnUse"
       x1="314.65482"
       y1="136.56906"
       x2="349.88681"
       y2="136.56906" />
  </defs>
  <sodipodi:namedview
     id="base"
     pagecolor="#ffffff"
     bordercolor="#666666"
     borderopacity="1.0"
     inkscape:pageopacity="1"
     inkscape:pageshadow="2"
     inkscape:zoom="1.3615848"
     inkscape:cx="93.813187"
     inkscape:cy="280.1882"
     inkscape:document-units="cm"
     inkscape:current-layer="layer4"
     showgrid="false"
     units="cm"
     showguides="false"
     inkscape:guide-bbox="true"
     inkscape:window-width="1676"
     inkscape:window-height="1014"
     inkscape:window-x="0"
     inkscape:window-y="16"
     inkscape:window-maximized="0"
     inkscape:snap-page="true"
     inkscape:snap-global="true"
     inkscape:showpageshadow="false"
     borderlayer="true"
     fit-margin-left="0"
     fit-margin-bottom="0"
     fit-margin-top="0"
     fit-margin-right="0"
     showborder="true">
    <sodipodi:guide
       orientation="1,0"
       position="151.81959,-509.08026"
       id="guide2985" />
    <sodipodi:guide
       orientation="1,0"
       position="300.63849,-509.08026"
       id="guide2987" />
    <sodipodi:guide
       orientation="1,0"
       position="449.45738,-509.08026"
       id="guide2989" />
    <sodipodi:guide
       orientation="1,0"
       position="598.27628,-509.08026"
       id="guide2991" />
    <sodipodi:guide
       orientation="1,0"
       position="747.09518,-509.08026"
       id="guide2993" />
    <sodipodi:guide
       orientation="1,0"
       position="895.91408,-509.08026"
       id="guide2995" />
    <sodipodi:guide
       orientation="1,0"
       position="1044.733,-509.08026"
       id="guide2997" />
    <sodipodi:guide
       orientation="1,0"
       position="1193.5519,-509.08026"
       id="guide2999" />
    <sodipodi:guide
       orientation="1,0"
       position="1342.3708,-509.08026"
       id="guide3001" />
    <sodipodi:guide
       orientation="0,1"
       position="3.0006903,17.100826"
       id="guide3003" />
    <sodipodi:guide
       orientation="0,1"
       position="3.0006903,-245.98971"
       id="guide3024" />
    <sodipodi:guide
       orientation="0,1"
       position="-7.6292307,280.1915"
       id="guide3026" />
    <inkscape:grid
       type="xygrid"
       id="grid5776"
       empspacing="5"
       visible="true"
       enabled="true"
       snapvisiblegridlinesonly="true"
       originx="3.0006903px"
       originy="-509.08026px" />
    <sodipodi:guide
       orientation="0,1"
       position="-7.6292307,543.28205"
       id="guide8376" />
    <sodipodi:guide
       orientation="0,1"
       position="-7.6292307,290.82142"
       id="guide8382" />
    <sodipodi:guide
       orientation="0,1"
       position="-7.6292307,269.56158"
       id="guide8384" />
    <sodipodi:guide
       orientation="1,0"
       position="0,483.99482"
       id="guide8670" />
  </sodipodi:namedview>
  <metadata
     id="metadata7">
    <rdf:RDF>
      <cc:Work
         rdf:about="">
        <dc:format>image/svg+xml</dc:format>
        <dc:type
           rdf:resource="http://purl.org/dc/dcmitype/StillImage" />
        <dc:title></dc:title>
      </cc:Work>
    </rdf:RDF>
  </metadata>
  <g
     inkscape:groupmode="layer"
     id="layer2"
     inkscape:label="Inside"
     style="display:none"
     transform="translate(3.0006903,17.09444)" />
  <g
     inkscape:label="Outside"
     inkscape:groupmode="layer"
     id="layer1"
     transform="translate(3.0006903,17.096766)">
    <g
       id="g8692"
       transform="translate(0,4)">
      <g
         transform="matrix(0.34575664,0,0,0.34575664,-119.85134,147.33816)"
         id="g4178-1-0">
        <g
           transform="translate(201.35916,-524.0855)"
           id="g4160-8-0"
           style="opacity:0.54485055;stroke:#8ae234;stroke-width:19.45684242;stroke-linejoin:round;stroke-miterlimit:4;stroke-dasharray:none">
          <path
             inkscape:connector-curvature="0"
             id="path4164-3-9"
             d="M 186.01558,951.73222 C 172.88959,951.73222 162,962.62181 162,975.7478 l 0,38.019 0,13.9358 0,91.3946 0,42.2809 a 10.001,10.001 0 0 0 2.90893,7.1032 l 57.97565,57.9757 a 10.001,10.001 0 0 0 17.11533,-7.1032 l 0,-100.2566 0,-89.3651 99.98601,0 0,104.7892 0,26.8568 a 10.001,10.001 0 0 0 2.90893,7.1032 l 57.97564,57.9757 a 10.001,10.001 0 0 0 17.11534,-7.1032 l 0,-92.8152 0,-106.8186 a 10.001,10.001 0 0 0 -2.90893,-7.1032 l -57.97565,-57.97565 a 10.001,10.001 0 0 0 -7.1032,-2.90893 l -120.95736,0 -5.07372,0 -37.95139,0 z m 0,20.02426 37.95139,0 5.07372,0 116.76309,0 52.15778,52.15782 0,102.6243 0,68.5966 -37.95138,-37.9514 0,-22.6625 0,-106.8187 0,-7.9826 a 10.001,10.001 0 0 0 -10.01213,-10.0121 l -120.01027,0 a 10.001,10.001 0 0 0 -10.01213,10.0121 l 0,99.3772 0,76.038 -37.95139,-37.9514 0,-38.0866 0,-91.3946 0,-13.9358 0,-38.019 c 0,-2.386 1.60532,-3.99132 3.99132,-3.99132 z"
             style="font-size:medium;font-style:normal;font-variant:normal;font-weight:normal;font-stretch:normal;text-indent:0;text-align:start;text-decoration:none;line-height:normal;letter-spacing:normal;word-spacing:normal;text-transform:none;direction:ltr;block-progression:tb;writing-mode:lr-tb;text-anchor:start;baseline-shift:baseline;color:#000000;fill:#8ae234;fill-opacity:1;fill-rule:nonzero;stroke:none;stroke-width:9.23879242;marker:none;visibility:visible;display:inline;overflow:visible;enable-background:accumulate;font-family:Sans;-inkscape-font-specification:Sans" />
        </g>
        <g
           id="g4151-7-5"
           transform="translate(201.35916,30.286216)">
          <g
             id="g4147-4-7">
            <path
               style="fill:url(#linearGradient8708);fill-opacity:1;stroke:none"
               d="m 186,99.09375 c -7.756,0 -14,6.244 -14,14 l 0,38 0,14 0,91.375 0,42.25 58,58 0,-100.25 0,-99.375 178,0 -58,-58 -120.9375,0 -5.0625,0 z"
               transform="translate(0,308.2677)"
               id="rect2985-7-1"
               inkscape:connector-curvature="0"
               sodipodi:nodetypes="sscccccccccccs" />
            <path
               style="fill:#4e9a06;fill-opacity:1;stroke:none"
               d="m 350,99.09375 0,66 0,106.78125 0,26.84375 58,58 0,-92.84375 0,-106.78125 z"
               id="rect2987-2-8"
               inkscape:connector-curvature="0"
               sodipodi:nodetypes="cccccccc"
               transform="translate(0,308.2677)" />
          </g>
          <text
             sodipodi:linespacing="125%"
             id="text4130-90-3"
             y="506.27911"
             x="439.50174"
             style="font-size:145.45666504px;font-style:normal;font-variant:normal;font-weight:normal;font-stretch:normal;line-height:125%;letter-spacing:0px;word-spacing:0px;fill:#73d216;fill-opacity:1;stroke:none;font-family:Aller Display;-inkscape-font-specification:Aller Display"
             xml:space="preserve"><tspan
               style="font-size:145.45666504px;font-style:normal;font-variant:normal;font-weight:normal;font-stretch:normal;text-align:start;line-height:125%;writing-mode:lr-tb;text-anchor:start;fill:#73d216;font-family:Aller Display;-inkscape-font-specification:Aller Display"
               y="506.27911"
               x="439.50174"
               id="tspan4132-4-3"
               sodipodi:role="line">3</tspan></text>
        </g>
      </g>
      <text
         xml:space="preserve"
         style="font-size:22.57092476px;font-style:normal;font-variant:normal;font-weight:normal;font-stretch:normal;line-height:125%;letter-spacing:0px;word-spacing:0px;fill:#73d216;fill-opacity:1;stroke:none;font-family:Aller Display;-inkscape-font-specification:Aller Display"
         x="4.4282017"
         y="423.39392"
         id="text4261"
         sodipodi:linespacing="125%"><tspan
           id="tspan7400"
           sodipodi:role="line"
           x="4.4282017"
           y="423.39392"
           style="font-size:22.57092476px;font-style:normal;font-variant:normal;font-weight:normal;font-stretch:normal;text-align:start;line-height:125%;writing-mode:lr-tb;text-anchor:start;fill:#73d216;fill-opacity:1;font-family:Aller Display;-inkscape-font-specification:Aller Display">No-Nonsense</tspan><tspan
           id="tspan4271"
           sodipodi:role="line"
           x="4.4282017"
           y="451.60757"
           style="font-size:22.57092476px;font-style:normal;font-variant:normal;font-weight:normal;font-stretch:normal;text-align:start;line-height:125%;writing-mode:lr-tb;text-anchor:start;fill:#73d216;fill-opacity:1;font-family:Aller Display;-inkscape-font-specification:Aller Display">Navigation</tspan></text>
    </g>
    <flowRoot
       xml:space="preserve"
       id="flowRoot4344"
       style="font-size:30px;font-style:normal;font-weight:normal;line-height:125%;letter-spacing:0px;word-spacing:0px;fill:#000000;fill-opacity:1;stroke:none;font-family:Sans"
       transform="matrix(-1,0,0,-1,155.94839,489.00295)"><flowRegion
         id="flowRegion4346"><rect
           id="rect4348"
           width="129.49054"
           height="241.36748"
           x="16.550913"
           y="274.4693" /></flowRegion><flowPara
         id="flowPara4350"
         style="font-size:15px;font-style:normal;font-variant:normal;font-weight:normal;font-stretch:normal;font-family:Myriad Pro;-inkscape-font-specification:Myriad Pro">No-Nonsense Navigation (N3) is the GPS receiver that just tells you what  you want to know: Where am I?</flowPara></flowRoot>    <g
       id="g8718">
      <rect
         y="480.85846"
         x="-2.0952168"
         height="62.421165"
         width="151.63208"
         id="rect7398"
         style="fill:#8ae234;fill-opacity:1;stroke:none" />
      <text
         sodipodi:linespacing="125%"
         id="text4146-1-8-9"
         y="505.44757"
         x="4.9095078"
         style="font-size:20.93320465px;font-style:normal;font-variant:normal;font-weight:normal;font-stretch:normal;line-height:125%;letter-spacing:0px;word-spacing:0px;fill:#ffffff;fill-opacity:1;stroke:none;font-family:Aller Display;-inkscape-font-specification:Aller Display"
         xml:space="preserve"><tspan
           id="tspan6998"
           style="font-size:20.93320465px;font-style:normal;font-variant:normal;font-weight:normal;font-stretch:normal;text-align:start;line-height:125%;writing-mode:lr-tb;text-anchor:start;fill:#ffffff;fill-opacity:1;font-family:Aller;-inkscape-font-specification:Aller"
           y="505.44757"
           x="4.9095078"
           sodipodi:role="line">Instruction</tspan><tspan
           id="tspan8374"
           style="font-size:20.93320465px;font-style:normal;font-variant:normal;font-weight:normal;font-stretch:normal;text-align:start;line-height:125%;writing-mode:lr-tb;text-anchor:start;fill:#ffffff;fill-opacity:1;font-family:Aller;-inkscape-font-specification:Aller"
           y="531.61414"
           x="4.9095078"
           sodipodi:role="line">Manual</tspan></text>
    </g>
    <text
       sodipodi:linespacing="125%"
       id="text8416"
       y="267.36978"
       x="24.16044"
       style="font-size:22.41337776px;font-style:normal;font-variant:normal;font-weight:normal;font-stretch:normal;line-height:125%;letter-spacing:0px;word-spacing:0px;fill:#4e9a06;fill-opacity:1;stroke:none;font-family:Aller Display;-inkscape-font-specification:Aller Display"
       xml:space="preserve"><tspan
         id="tspan8420"
         style="font-size:12.8485117px;font-style:normal;font-variant:normal;font-weight:normal;font-stretch:normal;text-align:start;line-height:125%;writing-mode:lr-tb;text-anchor:start;fill:#4e9a06;fill-opacity:1;font-family:Aller;-inkscape-font-specification:Aller"
         y="267.36978"
         x="24.16044"
         sodipodi:role="line">Instruction Manual</tspan></text>
    <g
       transform="matrix(0.04465862,0,0,0.04465862,-12.857041,237.78926)"
       id="g8424">
      <g
         transform="translate(201.35916,-524.0855)"
         id="g8426"
         style="stroke:#8ae234;stroke-width:20.24563217;stroke-linejoin:round;stroke-miterlimit:4;stroke-dasharray:none">
        <path
           sodipodi:type="inkscape:offset"
           inkscape:radius="8.0329914"
           inkscape:original="M 186 951.71875 C 172.87401 951.71875 162 962.62401 162 975.75 L 162 1013.7812 L 162 1027.6875 L 162 1119.0938 L 162 1161.375 A 10.001 10.001 0 0 0 164.90625 1168.4688 L 222.875 1226.4688 A 10.001 10.001 0 0 0 240 1219.3438 L 240 1119.0938 L 240 1029.7188 L 340 1029.7188 L 340 1134.5312 L 340 1161.375 A 10.001 10.001 0 0 0 342.90625 1168.4688 L 400.875 1226.4688 A 10.001 10.001 0 0 0 418 1219.3438 L 418 1126.5312 L 418 1019.7188 A 10.001 10.001 0 0 0 415.0625 1012.625 L 357.09375 954.65625 A 10.001 10.001 0 0 0 350 951.71875 L 229.03125 951.71875 L 223.96875 951.71875 L 186 951.71875 z M 186 971.75 L 223.96875 971.75 L 229.03125 971.75 L 345.8125 971.75 L 397.96875 1023.9062 L 397.96875 1126.5312 L 397.96875 1195.125 L 360 1157.1875 L 360 1134.5312 L 360 1027.6875 L 360 1019.7188 A 10.001 10.001 0 0 0 350 1009.7188 L 230 1009.7188 A 10.001 10.001 0 0 0 219.96875 1019.7188 L 219.96875 1119.0938 L 219.96875 1195.125 L 182.03125 1157.1875 L 182.03125 1119.0938 L 182.03125 1027.6875 L 182.03125 1013.7812 L 182.03125 975.75 C 182.03125 973.364 183.614 971.75 186 971.75 z "
           style="font-size:medium;font-style:normal;font-variant:normal;font-weight:normal;font-stretch:normal;text-indent:0;text-align:start;text-decoration:none;line-height:normal;letter-spacing:normal;word-spacing:normal;text-transform:none;direction:ltr;block-progression:tb;writing-mode:lr-tb;text-anchor:start;baseline-shift:baseline;color:#000000;fill:#ffffff;fill-opacity:1;fill-rule:nonzero;stroke:none;stroke-width:9.23879242;marker:none;visibility:visible;display:inline;overflow:visible;enable-background:accumulate;font-family:Sans;-inkscape-font-specification:Sans"
           id="path8448"
           d="m 186,943.6875 c -17.57527,0 -32.03125,14.49998 -32.03125,32.0625 l 0,38.0312 0,13.9063 0,91.4063 0,42.25 0,0.031 c 0.005,0.182 0.31933,3.3745 0.34375,3.5 0.0246,0.1266 0.95109,3.2556 1,3.375 0.0489,0.1194 1.58496,3.0175 1.65625,3.125 0.0713,0.1075 2.15907,2.6585 2.25,2.75 a 8.0337947,8.0337947 0 0 0 0,0.031 l 57.9375,57.9376 0.0313,0.062 0.0313,-0.031 c 0.15267,0.1424 1.86164,1.693 1.9375,1.75 0.0778,0.059 2.16439,1.3912 2.25,1.4375 0.0856,0.046 2.34598,1.0606 2.4375,1.0937 0.0915,0.033 2.49833,0.6995 2.59375,0.7188 0.0954,0.019 2.55903,0.3388 2.65625,0.3438 0.0972,0 2.55936,-0.053 2.65625,-0.063 0.0969,-0.01 2.53058,-0.445 2.625,-0.4687 0.0944,-0.024 2.47262,-0.8064 2.5625,-0.8437 0.0899,-0.037 2.29164,-1.1373 2.375,-1.1876 0.0834,-0.05 2.11249,-1.5004 2.1875,-1.5624 0.075,-0.062 1.87248,-1.7713 1.9375,-1.8438 0.065,-0.072 1.57141,-2.0437 1.625,-2.125 0.0536,-0.081 1.24027,-2.2554 1.28125,-2.3438 0.041,-0.088 0.94127,-2.4066 0.96875,-2.5 0.0275,-0.093 0.54913,-2.4973 0.5625,-2.5937 0.0129,-0.093 0.14696,-2.3458 0.15625,-2.5937 3.3e-4,-0.01 4e-5,-0.09 0,-0.094 l 0,-100.1562 0,-81.3438 83.9375,0 0,96.7812 0,26.8126 0,0.031 c 0.005,0.182 0.31933,3.3745 0.34375,3.5 0.0246,0.1266 0.95109,3.2556 1,3.375 0.0489,0.1194 1.58496,3.0175 1.65625,3.125 0.0713,0.1075 2.15907,2.6585 2.25,2.75 a 8.0337947,8.0337947 0 0 0 0,0.031 l 57.9375,57.9376 0.0313,0.062 0.0313,-0.031 c 0.15267,0.1424 1.86164,1.693 1.9375,1.75 0.0778,0.059 2.16439,1.3912 2.25,1.4375 0.0856,0.046 2.34598,1.0606 2.4375,1.0937 0.0915,0.033 2.49833,0.6995 2.59375,0.7188 0.0954,0.019 2.55903,0.3388 2.65625,0.3438 0.0972,0 2.55936,-0.053 2.65625,-0.063 0.0969,-0.01 2.53058,-0.445 2.625,-0.4687 0.0944,-0.024 2.47262,-0.8064 2.5625,-0.8437 0.0899,-0.037 2.29164,-1.1373 2.375,-1.1876 0.0834,-0.05 2.11249,-1.5004 2.1875,-1.5624 0.075,-0.062 1.87248,-1.7713 1.9375,-1.8438 0.065,-0.072 1.57141,-2.0437 1.625,-2.125 0.0536,-0.081 1.24027,-2.2554 1.28125,-2.3438 0.041,-0.088 0.94127,-2.4066 0.96875,-2.5 0.0275,-0.093 0.54913,-2.4973 0.5625,-2.5937 0.0129,-0.093 0.14696,-2.3458 0.15625,-2.5937 3.3e-4,-0.01 4e-5,-0.09 0,-0.094 l 0,-92.7188 0,-106.8124 c 1.8e-4,-0.1293 -0.31863,-3.4045 -0.34375,-3.5313 -0.0251,-0.1268 -0.98181,-3.2556 -1.03125,-3.375 -0.0494,-0.1194 -1.5844,-3.0176 -1.65625,-3.125 -0.0718,-0.1074 -2.15852,-2.6587 -2.25,-2.75 l -57.96875,-57.96875 c -0.0913,-0.0915 -2.64259,-2.17815 -2.75,-2.25 -0.10741,-0.0719 -3.00561,-1.60681 -3.125,-1.65625 -0.11939,-0.0494 -3.24824,-1.00613 -3.375,-1.03125 -0.12676,-0.0251 -3.40203,-0.34393 -3.53125,-0.34375 l -120.96875,0 -5.0625,0 -37.96875,0 z m 4.0625,36.09375 33.90625,0 5.0625,0 113.4375,0 47.46875,47.46875 0,99.2812 0,49.1876 -21.90625,-21.875 0,-19.3126 0,-106.8437 0,-7.9687 c -10e-6,-0.1288 -0.31861,-3.405 -0.34375,-3.5313 -0.0251,-0.1263 -0.98196,-3.256 -1.03125,-3.375 -0.0493,-0.119 -1.5847,-3.0179 -1.65625,-3.125 -0.0716,-0.1071 -2.15893,-2.6277 -2.25,-2.7187 -0.0911,-0.091 -2.61167,-2.1785 -2.71875,-2.25 -0.10708,-0.072 -3.00602,-1.607 -3.125,-1.6563 -0.11898,-0.049 -3.24869,-1.0061 -3.375,-1.0313 -0.12631,-0.025 -3.40246,-0.3437 -3.53125,-0.3437 l -119.96875,0 -0.0313,0 c -0.18202,0 -3.37448,0.3191 -3.5,0.3437 -0.12663,0.025 -3.28691,0.9509 -3.40625,1 -0.11934,0.049 -3.01756,1.6161 -3.125,1.6876 -0.10744,0.071 -2.62736,2.1276 -2.71875,2.2187 -0.0914,0.091 -2.17818,2.6428 -2.25,2.75 -0.0718,0.1072 -1.63802,3.0058 -1.6875,3.125 -0.0495,0.1192 -1.00602,3.2484 -1.03125,3.375 -0.0252,0.1266 -0.34374,3.4022 -0.34375,3.5313 l 0,99.375 0,56.625 -21.875,-21.875 0,-34.75 0,-91.4063 0,-13.9063 0,-33.99995 z" />
      </g>
      <g
         id="g8430"
         transform="translate(201.35916,30.286216)">
        <text
           xml:space="preserve"
           style="font-size:145.45666504px;font-style:normal;font-variant:normal;font-weight:normal;font-stretch:normal;line-height:125%;letter-spacing:0px;word-spacing:0px;fill:#ffffff;fill-opacity:1;stroke:#ffffff;stroke-width:35.7039299;stroke-miterlimit:4;stroke-opacity:1;stroke-dasharray:none;font-family:Aller Display;-inkscape-font-specification:Aller Display"
           x="439.50174"
           y="506.27911"
           id="text8432"
           sodipodi:linespacing="125%"><tspan
             sodipodi:role="line"
             id="tspan8434"
             x="439.50174"
             y="506.27911"
             style="font-size:145.45666504px;font-style:normal;font-variant:normal;font-weight:normal;font-stretch:normal;text-align:start;line-height:125%;writing-mode:lr-tb;text-anchor:start;fill:#ffffff;fill-opacity:1;stroke:#ffffff;stroke-width:35.7039299;stroke-miterlimit:4;stroke-opacity:1;stroke-dasharray:none;font-family:Aller Display;-inkscape-font-specification:Aller Display">3</tspan></text>
        <g
           id="g8436">
          <path
             style="fill:url(#linearGradient8446);fill-opacity:1;stroke:none"
             d="m 186,99.09375 c -7.756,0 -14,6.244 -14,14 l 0,38 0,14 0,91.375 0,42.25 58,58 0,-100.25 0,-99.375 178,0 -58,-58 -120.9375,0 -5.0625,0 z"
             transform="translate(0,308.2677)"
             id="path8438"
             inkscape:connector-curvature="0"
             sodipodi:nodetypes="sscccccccccccs" />
          <path
             style="fill:#4e9a06;fill-opacity:1;stroke:none"
             d="m 350,99.09375 0,66 0,106.78125 0,26.84375 58,58 0,-92.84375 0,-106.78125 z"
             id="path8440"
             inkscape:connector-curvature="0"
             sodipodi:nodetypes="cccccccc"
             transform="translate(0,308.2677)" />
        </g>
        <text
           sodipodi:linespacing="125%"
           id="text8442"
           y="506.27911"
           x="439.50174"
           style="font-size:145.45666504px;font-style:normal;font-variant:normal;font-weight:normal;font-stretch:normal;line-height:125%;letter-spacing:0px;word-spacing:0px;fill:#73d216;fill-opacity:1;stroke:none;font-family:Aller Display;-inkscape-font-specification:Aller Display"
           xml:space="preserve"><tspan
             style="font-size:145.45666504px;font-style:normal;font-variant:normal;font-weight:normal;font-stretch:normal;text-align:start;line-height:125%;writing-mode:lr-tb;text-anchor:start;fill:#73d216;font-family:Aller Display;-inkscape-font-specification:Aller Display"
             y="506.27911"
             x="439.50174"
             id="tspan8444"
             sodipodi:role="line">3</tspan></text>
      </g>
    </g>
    <text
       xml:space="preserve"
       style="font-size:30px;font-style:normal;font-weight:normal;line-height:125%;letter-spacing:0px;word-spacing:0px;fill:#888a85;fill-opacity:1;stroke:none;font-family:Sans"
       x="-138.81889"
       y="-32.420555"
       id="text8658"
       sodipodi:linespacing="125%"
       transform="scale(-1,-1)"><tspan
         sodipodi:role="line"
         id="tspan8660"
         x="-138.81889"
         y="-32.420555"
         style="font-size:11px;font-style:italic;font-variant:normal;font-weight:normal;font-stretch:normal;fill:#888a85;font-family:Myriad Pro;-inkscape-font-specification:Myriad Pro Italic">Made by Jonathan Heathcote</tspan><tspan
         sodipodi:role="line"
         x="-138.81889"
         y="-18.670555"
         id="tspan8664"
         style="font-size:11px;font-style:italic;font-variant:normal;font-weight:normal;font-stretch:normal;fill:#888a85;font-family:Myriad Pro;-inkscape-font-specification:Myriad Pro Italic">for Richard Heathcote,</tspan><tspan
         sodipodi:role="line"
         x="-138.81889"
         y="-4.9205551"
         id="tspan8662"
         style="font-size:11px;font-style:italic;font-variant:normal;font-weight:normal;font-stretch:normal;fill:#888a85;font-family:Myriad Pro;-inkscape-font-specification:Myriad Pro Italic">A Great Dad.</tspan></text>
  </g>
  <g
     inkscape:groupmode="layer"
     id="layer4"
     inkscape:label="Fold Marks Outside"
     style="display:inline;opacity:0.333"
     transform="translate(3.0006903,17.09444)">
    <g
       transform="translate(7.8167307,0.002326)"
       id="g8392"
       style="stroke:#2e3436">
      <path
         transform="translate(-10.629921,-10.632247)"
         inkscape:connector-curvature="0"
         id="path8386"
         d="m 0,263.09041 6.3417284,0"
         style="fill:none;stroke:#2e3436;stroke-width:0.35433071999999999;stroke-linecap:butt;stroke-linejoin:miter;stroke-miterlimit:4;stroke-opacity:1;stroke-dasharray:none" />
      <path
         style="fill:none;stroke:#2e3436;stroke-width:0.35433071999999999;stroke-linecap:butt;stroke-linejoin:miter;stroke-miterlimit:4;stroke-opacity:1;stroke-dasharray:none"
         d="m -10.629921,273.718 6.3417284,0"
         id="path8388"
         inkscape:connector-curvature="0" />
    </g>
    <g
       id="g8396"
       transform="translate(153.10709,0.002326)"
       style="stroke:#2e3436">
      <path
         style="fill:none;stroke:#2e3436;stroke-width:0.35433071999999999;stroke-linecap:butt;stroke-linejoin:miter;stroke-miterlimit:4;stroke-opacity:1;stroke-dasharray:none"
         d="m 0,263.09041 6.3417284,0"
         id="path8398"
         inkscape:connector-curvature="0"
         transform="translate(-10.629921,-10.632247)" />
      <path
         inkscape:connector-curvature="0"
         id="path8400"
         d="m -10.629921,273.718 6.3417284,0"
         style="fill:none;stroke:#2e3436;stroke-width:0.35433071999999999;stroke-linecap:butt;stroke-linejoin:miter;stroke-miterlimit:4;stroke-opacity:1;stroke-dasharray:none" />
    </g>
    <path
       style="fill:none;stroke:#2e3436;stroke-width:0.35433071999999999;stroke-linecap:butt;stroke-linejoin:miter;stroke-miterlimit:4;stroke-opacity:1;stroke-dasharray:none"
       d="m 148.8189,273.72032 0,6.34173"
       id="path8644"
       inkscape:connector-curvature="0" />
    <path
       inkscape:connector-curvature="0"
       id="path8650"
       d="m 148.77406,519.83941 0,6.34173"
       style="fill:none;stroke:#2e3436;stroke-width:0.35433071999999999;stroke-linecap:butt;stroke-linejoin:miter;stroke-miterlimit:4;stroke-opacity:1;stroke-dasharray:none" />
    <path
       style="fill:none;stroke:#2e3436;stroke-width:0.35433071999999999;stroke-linecap:butt;stroke-linejoin:miter;stroke-miterlimit:4;stroke-opacity:1;stroke-dasharray:none"
       d="m 148.775,-0.629921 0,6.34173"
       id="path8652"
       inkscape:connector-curvature="0" />
    <path
       inkscape:connector-curvature="0"
       id="path8654"
       d="m 148.8189,246.11875 0,6.34173"
       style="fill:none;stroke:#2e3436;stroke-width:0.35433071999999999;stroke-linecap:butt;stroke-linejoin:miter;stroke-miterlimit:4;stroke-opacity:1;stroke-dasharray:none" />
  </g>
  <g
     inkscape:groupmode="layer"
     id="layer3"
     inkscape:label="Outside Feature Pages"
     style="display:none"
     sodipodi:insensitive="true"
     transform="translate(3.0006903,17.09444)">
    <rect
       y="-8.691406e-06"
       x="-148.81885"
       height="526.18109"
       width="148.81885"
       id="rect4055"
       style="opacity:0.38222219;fill:#729fcf;fill-opacity:1;stroke:none" />
    <text
       xml:space="preserve"
       style="font-size:30px;font-style:normal;font-weight:normal;line-height:125%;letter-spacing:0px;word-spacing:0px;fill:#000000;fill-opacity:1;stroke:none;font-family:Sans"
       x="-136.75259"
       y="382.80774"
       id="text3990"
       sodipodi:linespacing="125%"><tspan
         sodipodi:role="line"
         id="tspan3992"
         x="-136.75259"
         y="382.80774">(Back of)</tspan><tspan
         sodipodi:role="line"
         x="-136.75259"
         y="420.30774"
         id="tspan3994">Back</tspan><tspan
         sodipodi:role="line"
         x="-136.75259"
         y="457.80774"
         id="tspan4290">Cover</tspan></text>
    <text
       sodipodi:linespacing="125%"
       id="text3996"
       y="-149.84618"
       x="5.2067032"
       style="font-size:30px;font-style:normal;font-weight:normal;line-height:125%;letter-spacing:0px;word-spacing:0px;fill:#000000;fill-opacity:1;stroke:none;font-family:Sans"
       xml:space="preserve"
       transform="scale(-1,-1)"><tspan
         y="-149.84618"
         x="5.2067032"
         sodipodi:role="line"
         id="tspan4292">(Back of)</tspan><tspan
         id="tspan4000"
         y="-112.34618"
         x="5.2067032"
         sodipodi:role="line">Front</tspan><tspan
         y="-74.846176"
         x="5.2067032"
         sodipodi:role="line"
         id="tspan4296">Cover</tspan></text>
    <rect
       style="opacity:0.38222219;fill:#729fcf;fill-opacity:1;stroke:none"
       id="rect4002"
       width="148.81885"
       height="526.18109"
       x="1339.3701"
       y="-8.691406e-06" />
    <text
       sodipodi:linespacing="125%"
       id="text3996-9"
       y="345.94421"
       x="1366.0546"
       style="font-size:30px;font-style:normal;font-weight:normal;line-height:125%;letter-spacing:0px;word-spacing:0px;fill:#000000;fill-opacity:1;stroke:none;font-family:Sans"
       xml:space="preserve"><tspan
         id="tspan4000-5"
         y="345.94421"
         x="1366.0546"
         sodipodi:role="line">Inside</tspan><tspan
         y="383.44421"
         x="1366.0546"
         sodipodi:role="line"
         id="tspan4030">When</tspan><tspan
         y="420.94421"
         x="1366.0546"
         sodipodi:role="line"
         id="tspan4032">Folded</tspan><tspan
         y="458.44421"
         x="1366.0546"
         sodipodi:role="line"
         id="tspan4034">Btm</tspan></text>
    <text
       xml:space="preserve"
       style="font-size:30px;font-style:normal;font-weight:normal;line-height:125%;letter-spacing:0px;word-spacing:0px;fill:#000000;fill-opacity:1;stroke:none;font-family:Sans"
       x="1366.0546"
       y="85.944214"
       id="text4036"
       sodipodi:linespacing="125%"><tspan
         sodipodi:role="line"
         x="1366.0546"
         y="85.944214"
         id="tspan4038">Inside</tspan><tspan
         id="tspan4040"
         sodipodi:role="line"
         x="1366.0546"
         y="123.44421">When</tspan><tspan
         id="tspan4042"
         sodipodi:role="line"
         x="1366.0546"
         y="160.94421">Folded</tspan><tspan
         id="tspan4044"
         sodipodi:role="line"
         x="1366.0546"
         y="198.44421">Top</tspan></text>
  </g>
  <g
     inkscape:groupmode="layer"
     id="layer6"
     inkscape:label="Cut">
    <path
       style="fill:none;stroke:#2e3436;stroke-width:0.35433072;stroke-linecap:round;stroke-linejoin:round;stroke-miterlimit:4;stroke-opacity:1;stroke-dasharray:none;stroke-dashoffset:0"
       d="m 0,0 0,560.375 151.8125,0 0,-17.09375 35.8125,-20 0,-212.46875 -35.8125,-20 0,-21.25 35.8125,-20 0,-212.46875 -35.8125,-20 0,-17.09375 z"
       id="rect8711"
       inkscape:connector-curvature="0"
       sodipodi:nodetypes="ccccccccccccc" />
  </g>
</svg>
